<svg width="46" height="46" viewBox="0 0 46 46" fill="none" xmlns="http://www.w3.org/2000/svg">
<rect width="46" height="46" rx="23" fill="#FF92AE"/>
<mask id="mask0_5373_7234" style="mask-type:alpha" maskUnits="userSpaceOnUse" x="14" y="14" width="18" height="18">
<path fill-rule="evenodd" clip-rule="evenodd" d="M29.75 17.375H16.25C15.6287 17.375 15.125 17.8787 15.125 18.5V27.5C15.125 28.1213 15.6287 28.625 16.25 28.625H29.75C30.3713 28.625 30.875 28.1213 30.875 27.5V18.5C30.875 17.8787 30.3713 17.375 29.75 17.375ZM16.25 16.25C15.0074 16.25 14 17.2574 14 18.5V27.5C14 28.7426 15.0074 29.75 16.25 29.75H29.75C30.9926 29.75 32 28.7426 32 27.5V18.5C32 17.2574 30.9926 16.25 29.75 16.25H16.25Z" fill="black"/>
<path d="M16.25 20.1875C16.25 19.8768 16.5018 19.625 16.8125 19.625H19.0625C19.3732 19.625 19.625 19.8768 19.625 20.1875V21.3125C19.625 21.6232 19.3732 21.875 19.0625 21.875H16.8125C16.5018 21.875 16.25 21.6232 16.25 21.3125V20.1875Z" fill="black"/>
<path fill-rule="evenodd" clip-rule="evenodd" d="M16.25 23.5625C16.25 23.2518 16.5018 23 16.8125 23H22.4375C22.7482 23 23 23.2518 23 23.5625C23 23.8732 22.7482 24.125 22.4375 24.125H16.8125C16.5018 24.125 16.25 23.8732 16.25 23.5625ZM16.25 25.8125C16.25 25.5018 16.5018 25.25 16.8125 25.25H17.9375C18.2482 25.25 18.5 25.5018 18.5 25.8125C18.5 26.1232 18.2482 26.375 17.9375 26.375H16.8125C16.5018 26.375 16.25 26.1232 16.25 25.8125ZM19.625 25.8125C19.625 25.5018 19.8768 25.25 20.1875 25.25H21.3125C21.6232 25.25 21.875 25.5018 21.875 25.8125C21.875 26.1232 21.6232 26.375 21.3125 26.375H20.1875C19.8768 26.375 19.625 26.1232 19.625 25.8125ZM23 25.8125C23 25.5018 23.2518 25.25 23.5625 25.25H24.6875C24.9982 25.25 25.25 25.5018 25.25 25.8125C25.25 26.1232 24.9982 26.375 24.6875 26.375H23.5625C23.2518 26.375 23 26.1232 23 25.8125ZM26.375 25.8125C26.375 25.5018 26.6268 25.25 26.9375 25.25H28.0625C28.3732 25.25 28.625 25.5018 28.625 25.8125C28.625 26.1232 28.3732 26.375 28.0625 26.375H26.9375C26.6268 26.375 26.375 26.1232 26.375 25.8125Z" fill="black"/>
</mask>
<g mask="url(#mask0_5373_7234)">
<rect x="14" y="14" width="18" height="18" fill="white"/>
</g>
</svg>
