<svg width="57" height="63" fill="none" xmlns="http://www.w3.org/2000/svg"><path d="M0 4.129v46.917c0 1.845 1.105 3.465 2.705 3.971l24.773 7.825c.667.21 1.374.21 2.042 0l24.772-7.825c1.601-.506 2.706-2.126 2.706-3.97V4.128c0-2.28-1.67-4.129-3.726-4.129H3.725C1.67 0 0 1.85 0 4.129Z" fill="#FD7E14"/><path d="M46.771 46.463 10.228 36.51V20.016c0-6.602 5.284-10.533 11.778-8.764 2.322.633 4.578 1.944 6.496 3.758 1.918-.767 4.174-.85 6.497-.22 6.493 1.768 11.777 8.578 11.777 15.18v16.493h-.005ZM14.003 33.7l28.991 7.897V28.942c0-4.485-3.589-9.11-8-10.312-1.932-.526-3.798-.323-5.256.57l-1.24.763-1.241-1.438c-1.458-1.69-3.324-2.908-5.256-3.436-4.411-1.202-8 1.47-8 5.954v12.654l.002.002Z" fill="#fff"/></svg>