<svg width="48" height="49" viewBox="0 0 48 49" fill="none" xmlns="http://www.w3.org/2000/svg">
<rect y="0.5" width="48" height="48" rx="24" fill="#EDEDED"/>
<path d="M20 24V19C20 17.9391 20.4214 16.9217 21.1716 16.1716C21.9217 15.4214 22.9391 15 24 15C25.0609 15 26.0783 15.4214 26.8284 16.1716C27.5786 16.9217 28 17.9391 28 19M17 26C17 25.4696 17.2107 24.9609 17.5858 24.5858C17.9609 24.2107 18.4696 24 19 24H29C29.5304 24 30.0391 24.2107 30.4142 24.5858C30.7893 24.9609 31 25.4696 31 26V32C31 32.5304 30.7893 33.0391 30.4142 33.4142C30.0391 33.7893 29.5304 34 29 34H19C18.4696 34 17.9609 33.7893 17.5858 33.4142C17.2107 33.0391 17 32.5304 17 32V26ZM23 29C23 29.2652 23.1054 29.5196 23.2929 29.7071C23.4804 29.8946 23.7348 30 24 30C24.2652 30 24.5196 29.8946 24.7071 29.7071C24.8946 29.5196 25 29.2652 25 29C25 28.7348 24.8946 28.4804 24.7071 28.2929C24.5196 28.1054 24.2652 28 24 28C23.7348 28 23.4804 28.1054 23.2929 28.2929C23.1054 28.4804 23 28.7348 23 29Z" stroke="#303030" stroke-width="1.5" stroke-linecap="round" stroke-linejoin="round"/>
</svg>
