<svg width="48" height="49" viewBox="0 0 48 49" fill="none" xmlns="http://www.w3.org/2000/svg">
<rect y="0.5" width="48" height="48" rx="24" fill="#EDEDED"/>
<path d="M29 21V18C29 17.7348 28.8946 17.4804 28.7071 17.2929C28.5196 17.1054 28.2652 17 28 17H18C17.4696 17 16.9609 17.2107 16.5858 17.5858C16.2107 17.9609 16 18.4696 16 19M16 19C16 19.5304 16.2107 20.0391 16.5858 20.4142C16.9609 20.7893 17.4696 21 18 21H30C30.2652 21 30.5196 21.1054 30.7071 21.2929C30.8946 21.4804 31 21.7348 31 22V25M16 19V31C16 31.5304 16.2107 32.0391 16.5858 32.4142C16.9609 32.7893 17.4696 33 18 33H30C30.2652 33 30.5196 32.8946 30.7071 32.7071C30.8946 32.5196 31 32.2652 31 32V29M32 25V29H28C27.4696 29 26.9609 28.7893 26.5858 28.4142C26.2107 28.0391 26 27.5304 26 27C26 26.4696 26.2107 25.9609 26.5858 25.5858C26.9609 25.2107 27.4696 25 28 25H32Z" stroke="#303030" stroke-width="1.5" stroke-linecap="round" stroke-linejoin="round"/>
</svg>
