<svg width="1440" height="678" fill="none" xmlns="http://www.w3.org/2000/svg"><g opacity=".4" clip-path="url(#a)"><path opacity=".35" d="M1282.15 980c-6.2-10.216-12.4-20.213-18.53-30.283-146.72-235.915-323.276-357.558-498.376-343.839-165.981 13.207-325.76 151.049-463.506 373.976h980.412V980Z" fill="url(#b)"/><path opacity=".35" d="M1648.63 785.825c-124.91-277.8-271.7-573.916-439.51-503.134-118.41 49.912-196.33 325.158-300.512 459.206-135.338 173.963-241.419-48.234-362.53-197.678-163.427-201.4-365.304-146.599-511.002 138.644C-10.012 771.231-53.13 882.512-98 977.155h1746.63v-191.33Z" fill="url(#c)"/><path opacity=".35" d="M2406.59 660.534c-15.76-5.181-31.37-5.984-45.45-3.065-53.26 10.581-103.75 64.361-152.85 120.11-49.1 55.75-98.42 114.492-151.17 136.675-175.98 73.847-321.53-257.587-484.08-364.417-147.3-96.759-303.36-13.135-446.36 120.694C981.128 806.622 830.833 997.733 679.517 916.37c-106.519-57.282-195.674-242.701-294.095-364.563-174.444-216.286-359.686-211.47-540.258-106.829v578.072H2406.59V660.534Z" fill="url(#d)"/></g><defs><linearGradient id="b" x1="775.941" y1="435.622" x2="533.667" y2="1068.75" gradientUnits="userSpaceOnUse"><stop stop-color="#96FFE1"/><stop offset="1" stop-color="#00C48C"/></linearGradient><linearGradient id="c" x1="746.8" y1="-45.935" x2="273.292" y2="1127.04" gradientUnits="userSpaceOnUse"><stop stop-color="#96FFE1"/><stop offset="1" stop-color="#00C48C"/></linearGradient><linearGradient id="d" x1="1084.06" y1="82.626" x2="785.88" y2="1261.08" gradientUnits="userSpaceOnUse"><stop stop-color="#96FFE1"/><stop offset="1" stop-color="#00C48C"/></linearGradient><clipPath id="a"><path fill="#fff" transform="translate(-98)" d="M0 0h1635v980H0z"/></clipPath></defs></svg>